<svg xmlns="http://www.w3.org/2000/svg" width="400" height="304" version="1.0" viewBox="0 0 300 228">
<path d="M77.5.65C-2.9 8.1-28.45 112.05 39.4 155.5c14.9 9.5 37.5 14.95 52.85 12.7 5.1-.75 6.15-.6 9 1.3 7.6 5.1 90.05 55.65 93.25 57.2l3.55 1.7 5.05-4.95c2.8-2.75 18.35-19 34.6-36.15l29.6-31.2 2.8 1.45c7.5 3.9 8.2 2.65 10.9-19.55l2.25-18.5 4.9-4.35c8.2-7.3 9-9.8 10-31.15 1.55-32.55 1.55-68.05 0-71.75-2.75-6.4-13.4-9.55-19.05-5.6-2.2 1.5-2.55 1.5-5.15 0-3.5-2.1-10.8-2.15-13.7-.1-2 1.35-2.5 1.35-5.15 0-3.8-1.95-9.35-2-13.05-.05-2.55 1.3-3.2 1.3-5.7 0-3.95-2.05-10.25-1.85-14.05.45-5.9 3.6-6.3 5.55-6.3 30.25v22.3l-4.05-4.7c-3.8-4.45-24.2-12.8-31.3-12.8-3.7 0-7.4 4.85-8.65 11.4-1.8 9.55-.05 11.8 12.5 16l8 2.7 10.15 13.75c5.6 7.6 11.5 16.5 13.2 19.8 3.25 6.45 7.8 11.15 12.95 13.25l3.2 1.35v8.9c0 8.85.05 8.95 2.95 10.65l2.95 1.7-9.2 9.5c-30.75 31.85-34.15 35.2-35.3 34.35-.65-.45-9.25-8.3-19.05-17.35-9.85-9.1-20.25-18.6-23.15-21.2l-5.3-4.7 5.05-6.2C196.1 79.85 149.45-6.05 77.5.65zM103.55 12c48.4 12.4 70.75 69.55 44 112.45-5.3 8.55-5.95 8.9-7.55 4.1-15.3-46.4-89.75-50.6-112.55-6.3-3.55 6.95-3.9 6.9-8.55-1.7C-12.5 62.55 39.7-4.3 103.55 12zm129.25 3.2c.85.85 1.2 6.25 1.2 18v16.85l-2.5 1.15c-5.5 2.5-6.5-.4-6.5-18.65 0-16.95.4-18.55 4.5-18.55 1.15 0 2.65.55 3.3 1.2zm19 0c3.7 3.7 1.1 36.8-2.95 36.8-4.5 0-4.85-1.3-4.85-18.85 0-17.6.35-19.15 4.5-19.15 1.15 0 2.65.55 3.3 1.2zm18.65.35c2.8 2.85 2.25 32.85-.65 34.9-6.1 4.25-7.8.45-7.8-17.25 0-17.95 2.6-23.45 8.45-17.65zm18.7.1C293.8 19.85 291.2 52 286.2 52c-4.5 0-5.2-2.6-5.2-19 0-18.65 2-22.9 8.15-17.35zm-95.8 39.6 9.95 3.25 6.1 8.45C221.1 83.15 225 83.4 225 68v-7.85l3.45.55c2.4.4 4.65-.05 7.4-1.5 3.45-1.8 4.05-1.85 5.4-.55 2.55 2.55 9.2 2.85 13 .65 3.25-1.95 3.4-1.95 6.8-.15 4.3 2.35 8.6 2.35 12.4.05 2.85-1.7 3.05-1.7 6.5.05 2.25 1.2 4.75 1.7 6.8 1.35l3.3-.5-.55 15.2c-1.35 35.8-1.6 36.05-32.65 36.5-25.45.4-27.15-.2-32.85-11-1.85-3.45-8.4-13.1-14.55-21.35l-11.25-15.1-8.35-3c-8.3-2.95-9.8-4.4-8.45-7.9.7-1.9.5-1.95 11.95 1.8zm-97.5 46.2c14.4 3.8 28.2 15.3 34.6 28.65 4.55 9.4 4.5 10.05-1.2 14.2-28.7 21.1-69.45 19.05-95.6-4.75l-2.85-2.6 1.65-4.15c9.6-24 38.15-38.1 63.4-31.35zm177.8 22c-.3.8-1.1 6.3-1.75 12.25-.65 5.95-1.3 10.95-1.5 11.15-.15.2-6.85-2.95-14.85-6.95L241 132.55V122h16.6c14.1 0 16.55.2 16.05 1.45zM252.5 148.7c3.05 1.5 5.4 3.05 5.25 3.4-.35.95-60.95 64.9-61.45 64.9-.25 0-19.5-11.8-42.85-26.15l-42.35-26.2 9.7-4.7c5.35-2.55 11.45-6.1 13.6-7.8 2.15-1.75 4.2-3.15 4.6-3.15.4 0 12.85 11 27.6 24.5 14.8 13.45 27.5 24.5 28.3 24.5 1.2 0 28.15-27.05 46.05-46.25 2.95-3.15 5.5-5.75 5.65-5.75.2 0 2.85 1.2 5.9 2.7z"/><path d="M75.2 22.85C44.9 33.65 52.4 77.9 84.55 78c25 .05 37.8-30.1 20.3-47.75-8.15-8.3-19.4-11.1-29.65-7.4zm16.5 9.2c6.75 2.55 11.55 9.75 11.65 17.45.3 20.55-27.95 26.8-36.45 8.05-6.95-15.3 8.8-31.5 24.8-25.5zM240.75 83.55C233.8 87.35 232.9 99 239.6 99c2.6 0 4.1-1.65 4.55-5 .35-2.5.4-2.5 12.05-2.8l11.75-.25.65 2.75c.9 3.85 2.25 5.3 4.8 5.3 6.85 0 5.75-11.8-1.35-15.5-4.1-2.1-27.35-2.05-31.3.05z"/></svg>